<svg width="86" height="81" viewBox="0 0 86 81" fill="none" xmlns="http://www.w3.org/2000/svg">
<path d="M40.7104 23.1098L48.6122 25.3565C49.1812 25.5136 49.5762 26.0478 49.5762 26.6291C49.5762 27.3519 48.9757 27.9489 48.2487 27.9489H43.0651C42.4962 27.9489 41.9431 27.8232 41.4373 27.6032C40.6788 27.2576 39.7937 27.3361 39.209 27.9175L36.4434 30.6669C35.6058 31.4996 35.7006 32.9136 36.6804 33.5578C38.1818 34.5476 39.8886 35.1446 41.706 35.3646V38.1455C41.706 39.5281 42.8439 40.6593 44.2346 40.6593H46.7632C48.1539 40.6593 49.2918 39.5281 49.2918 38.1455V35.3803C54.0803 34.8147 57.7152 30.5098 57.083 25.4822C56.6247 21.8686 53.8116 18.9935 50.3032 17.9879L42.4014 15.7412C41.8324 15.5841 41.4373 15.0499 41.4373 14.4686C41.4373 13.7459 42.0379 13.1489 42.7648 13.1489H47.9485C48.5174 13.1489 49.0705 13.2746 49.5762 13.4945C50.3348 13.8402 51.2198 13.7616 51.8046 13.1803L54.5702 10.4308C55.4078 9.59814 55.313 8.18413 54.3332 7.53996C52.8318 6.55016 51.125 5.95313 49.3076 5.73317V2.95228C49.3076 1.56969 48.1697 0.438477 46.779 0.438477H44.2504C42.8597 0.438477 41.7218 1.56969 41.7218 2.95228V5.71746C36.9333 6.28306 33.2984 10.5879 33.9306 15.6156C34.3889 19.2291 37.2019 22.1043 40.7104 23.1098ZM84.376 51.9871C82.606 50.306 79.872 50.416 78.0071 51.9871L64.2263 63.5977C62.5353 65.0275 60.4334 65.7973 58.2525 65.7973H40.5997C39.288 65.7973 38.2134 64.6661 38.2134 63.2835C38.2134 61.9009 39.288 60.7697 40.5997 60.7697H52.2787C54.665 60.7697 56.8618 59.0572 57.241 56.5905C57.731 53.4483 55.4236 50.7145 52.5315 50.7145H28.6521C24.6222 50.7145 20.7187 52.1756 17.6053 54.8466L10.6675 60.7697H2.38636C1.07465 60.7697 0 61.9009 0 63.2835V78.3663C0 79.7489 1.07465 80.8801 2.38636 80.8801H55.6291C57.7942 80.8801 59.8961 80.1103 61.6029 78.6805L84.1706 59.6699C86.4463 57.7689 86.6202 54.1238 84.376 51.9871Z" fill="#BED73D"/>
</svg>
