<svg width="139" height="36" viewBox="0 0 139 36" fill="none" xmlns="http://www.w3.org/2000/svg">
<path fill-rule="evenodd" clip-rule="evenodd" d="M134.848 9.81987C127.082 9.81987 122.94 14.2412 122.793 19.9366C121.683 13.7167 116.358 9.66999 110.368 9.66999C104.377 9.66999 99.2742 13.7167 98.0908 19.8616C98.0908 14.3911 93.8753 9.66999 88.4024 9.66999C86.0358 9.66999 83.965 10.5693 82.264 12.2179V4.27441H76.4214V22.0349C76.4214 22.6344 76.4213 23.0091 76.3474 23.8334C75.9776 27.5054 73.537 29.3788 70.8746 29.3788C68.0642 29.3788 65.6236 28.0299 65.5496 23.9083C65.5496 23.1589 65.5496 22.8592 65.5496 22.4095V15.74H74.6464V10.1196H65.4017V4.27441H59.4851V19.9366C58.3758 14.0914 53.2727 9.74493 47.2082 9.74493C43.2885 9.74493 39.8125 11.5435 37.5198 14.3911V9.81987H36.8542C29.2366 9.81987 25.095 14.0914 24.7992 19.6368C23.6898 14.0164 19.1045 9.81987 13.2618 9.81987C10.2296 9.81987 7.86296 10.9439 5.94007 12.8174V4.27441H0.245361V19.2621C0.245361 20.3862 0.245361 21.4353 0.319319 22.4095C0.393276 29.3788 5.2005 34.9992 12.5962 34.9992C19.0305 34.9992 23.6898 30.8027 24.7992 25.1823V34.3997H30.6418V22.8592C30.6418 22.3346 30.6418 21.7351 30.7158 21.2105C30.7897 17.6884 33.0824 15.5901 36.7063 15.5152C35.449 17.4636 34.7095 19.8616 34.7095 22.3346C34.7095 29.3039 40.3302 34.9992 47.2082 34.9992C53.2727 34.9992 58.3758 30.5778 59.4851 24.8076C59.4851 30.8776 64.2924 35.0742 70.135 35.0742C72.5756 35.0742 74.7203 34.025 76.4214 32.3014V34.3997H82.264V21.81C82.264 21.5103 82.264 21.2855 82.264 21.0607C82.4119 17.014 84.7785 15.2904 87.2931 15.2904C89.8076 15.2904 92.0263 17.014 92.1003 21.0607C92.1003 21.4353 92.1003 21.6602 92.1003 22.0349V34.3997H98.0169V25.0324C99.1262 31.1024 104.229 34.9992 110.294 34.9992C117.172 34.9992 121.018 30.5778 122.053 25.8567H116.358C115.841 27.5054 113.844 30.0533 110.294 30.0533C107.114 30.0533 104.377 27.8801 103.712 24.283H122.719V34.3997H128.561V22.8592C128.561 22.3346 128.561 21.7351 128.635 21.2105C128.709 17.6135 131.076 15.5152 134.774 15.5152H135.439V9.81987H134.848ZM12.5962 29.3039C8.75045 29.3039 5.79216 26.2314 5.79216 22.4095C5.79216 18.5127 8.75045 15.5152 12.5962 15.5152C16.442 15.5152 19.4003 18.5877 19.4003 22.4095C19.4003 26.2314 16.442 29.3039 12.5962 29.3039ZM47.2082 29.3039C43.3625 29.3039 40.4042 26.2314 40.4042 22.4095C40.4042 18.5127 43.3625 15.5152 47.2082 15.5152C51.054 15.5152 54.0123 18.5877 54.0123 22.4095C54.0863 26.2314 51.128 29.3039 47.2082 29.3039ZM104.007 19.5619C104.969 16.5643 107.483 14.6909 110.368 14.6909C114.066 14.6909 116.284 17.6884 116.728 19.5619H104.007Z" fill="black"/>
<path fill-rule="evenodd" clip-rule="evenodd" d="M94.0971 4.49917L95.0586 2.10113L96.02 4.49917H94.0971ZM94.0971 6.74732V6.59744C93.8753 6.59744 93.7274 6.5225 93.6534 6.5225C93.5055 6.44757 93.5055 6.37263 93.5055 6.22275C93.5055 6.14781 93.5055 6.07288 93.5794 5.923C93.6534 5.77312 93.7274 5.47337 94.0232 4.87386H96.2419L96.5377 5.69818C96.6117 5.84806 96.6117 5.923 96.6856 6.07287C96.6856 6.14781 96.7596 6.22275 96.7596 6.29769C96.7596 6.44757 96.7596 6.5225 96.6856 6.5225C96.6117 6.5225 96.4638 6.59744 96.1679 6.59744V6.74732H98.3127V6.59744C98.0908 6.59744 97.9429 6.52251 97.869 6.44757C97.795 6.37263 97.6471 6.14781 97.5731 5.84806L95.4284 0.977051H95.2065L93.4315 5.24855C93.1357 5.84806 92.9878 6.29769 92.8399 6.44757C92.692 6.59744 92.544 6.67238 92.3222 6.67238V6.82226H94.0971V6.74732Z" fill="black"/>
<path fill-rule="evenodd" clip-rule="evenodd" d="M100.605 2.8504V3.15016H99.7179V5.5482C99.7179 5.77301 99.7179 5.92289 99.7918 5.99783C99.8658 6.22264 100.014 6.29758 100.162 6.29758C100.236 6.29758 100.384 6.29758 100.457 6.22264C100.531 6.1477 100.605 6.07276 100.679 5.99783L100.753 6.07276L100.679 6.22264C100.531 6.44745 100.384 6.5224 100.236 6.67227C100.088 6.74721 99.9398 6.82215 99.7918 6.82215C99.496 6.82215 99.2741 6.67227 99.1262 6.37252C99.0523 6.22264 99.0523 5.99783 99.0523 5.69807V3.15016H98.6085V3.07522C98.6085 3.07522 98.6825 3.00028 98.7564 3.00028C98.9783 2.85041 99.0523 2.70053 99.2002 2.62559C99.2742 2.55065 99.496 2.2509 99.7918 1.80127C99.8658 1.80127 99.8658 1.80127 99.8658 1.80127C99.8658 1.80127 99.8658 1.80127 99.8658 1.87621V2.92535H100.605V2.8504Z" fill="black"/>
<path fill-rule="evenodd" clip-rule="evenodd" d="M103.046 2.85059H104.821V3.00047C104.673 3.00047 104.599 3.00047 104.525 3.0754C104.377 3.0754 104.303 3.15034 104.303 3.30022C104.303 3.37516 104.303 3.37516 104.303 3.4501C104.303 3.52504 104.377 3.52504 104.377 3.67491L105.339 5.77319L106.152 3.59997C106.152 3.59997 106.152 3.52504 106.226 3.4501C106.226 3.37516 106.226 3.30022 106.226 3.30022C106.226 3.22528 106.226 3.15034 106.152 3.15034C106.078 3.15034 106.004 3.0754 105.93 3.0754H105.782V2.92553H106.966V3.0754C106.818 3.0754 106.744 3.15034 106.744 3.22528C106.67 3.30022 106.67 3.37516 106.596 3.52503L105.265 7.04715C105.043 7.64666 104.821 8.09629 104.599 8.39604C104.377 8.69579 104.155 8.77073 103.786 8.77073C103.638 8.77073 103.49 8.6958 103.342 8.62086C103.194 8.54592 103.12 8.39604 103.12 8.24617C103.12 8.09629 103.194 8.02135 103.268 7.94641C103.342 7.87147 103.416 7.87147 103.564 7.87147C103.638 7.87147 103.712 7.87147 103.859 7.94641C104.007 8.02135 104.081 8.02135 104.155 8.02135C104.303 8.02135 104.451 7.79654 104.673 7.42184C104.821 7.04715 104.895 6.82233 104.895 6.67246V6.59751V6.52258L103.564 3.67491C103.49 3.4501 103.416 3.30022 103.342 3.22528C103.268 3.15034 103.194 3.15034 103.046 3.0754V2.85059Z" fill="black"/>
<path fill-rule="evenodd" clip-rule="evenodd" d="M109.184 3.0754C109.554 3.0754 109.924 3.30022 110.146 3.74985C110.368 4.19948 110.442 4.64911 110.442 5.09874C110.442 5.54837 110.368 5.92307 110.22 6.22282C110.072 6.52257 109.776 6.67246 109.48 6.67246C109.11 6.67246 108.741 6.44764 108.519 5.99801C108.297 5.54838 108.149 5.09874 108.149 4.57417C108.149 3.97467 108.297 3.52503 108.593 3.22528C108.741 3.15034 108.963 3.0754 109.184 3.0754ZM107.409 4.79899C107.409 5.3985 107.557 5.92307 108.001 6.29776C108.371 6.67246 108.815 6.89727 109.332 6.89727C109.924 6.89727 110.368 6.67246 110.664 6.29776C111.033 5.84813 111.181 5.3985 111.181 4.79899C111.181 4.19948 111.033 3.67491 110.664 3.37516C110.294 3.00047 109.85 2.85059 109.258 2.85059C108.741 2.85059 108.223 3.0754 107.927 3.4501C107.557 3.74985 107.409 4.27442 107.409 4.79899Z" fill="black"/>
<path fill-rule="evenodd" clip-rule="evenodd" d="M112.734 2.85056V5.54835C112.734 5.77317 112.734 5.92304 112.808 5.99798C112.882 6.2228 113.104 6.29774 113.4 6.29774C113.622 6.29774 113.77 6.2228 113.992 6.07292C114.066 5.99798 114.214 5.92304 114.287 5.77316V3.45007C114.287 3.22525 114.214 3.07538 114.14 3.00044C114.066 2.9255 113.918 2.9255 113.622 2.85056V2.70068H114.953V5.69823C114.953 5.8481 114.953 5.99798 115.027 6.07292C115.101 6.14786 115.249 6.14786 115.471 6.14786V6.44761C115.323 6.52255 115.175 6.52255 115.175 6.52255C115.101 6.52255 114.953 6.59749 114.805 6.67243C114.731 6.67243 114.583 6.74737 114.361 6.8223C114.361 6.8223 114.361 6.82231 114.361 6.74737V6.07292C114.14 6.29773 113.992 6.44761 113.844 6.59749C113.622 6.74736 113.326 6.8223 113.104 6.8223C112.882 6.8223 112.66 6.74736 112.439 6.59749C112.217 6.44761 112.143 6.14786 112.143 5.77316V3.59994C112.143 3.37513 112.069 3.22525 111.995 3.15031C111.921 3.07538 111.847 3.07538 111.625 3.07538V2.9255H112.734V2.85056Z" fill="black"/>
<path fill-rule="evenodd" clip-rule="evenodd" d="M115.767 6.59749C115.988 6.59749 116.21 6.52255 116.284 6.44761C116.358 6.37267 116.432 6.2228 116.432 5.99798V4.12452C116.432 3.82476 116.432 3.67488 116.358 3.52501C116.284 3.37513 116.21 3.37513 116.062 3.37513H115.988C115.915 3.37513 115.915 3.37513 115.841 3.37513V3.22525C115.989 3.15031 116.136 3.07538 116.358 3.07538C116.506 3.00044 116.654 3.00044 116.728 2.9255C116.876 2.85056 117.024 2.85056 117.172 2.77562C117.172 2.77562 117.172 2.77562 117.246 2.77562V2.85056V3.52501C117.394 3.30019 117.616 3.07538 117.763 2.9255C117.911 2.77562 118.133 2.70068 118.281 2.70068C118.429 2.70068 118.503 2.77562 118.651 2.85056C118.725 2.9255 118.799 3.07538 118.799 3.15031C118.799 3.30019 118.799 3.37513 118.725 3.45007C118.651 3.52501 118.577 3.59994 118.503 3.59994C118.429 3.59994 118.281 3.52501 118.207 3.45007C118.133 3.37513 117.985 3.30019 117.985 3.30019C117.911 3.30019 117.763 3.37513 117.616 3.52501C117.468 3.67488 117.394 3.82476 117.394 4.04958V5.92304C117.394 6.14786 117.468 6.29773 117.542 6.37267C117.616 6.44761 117.837 6.52255 118.059 6.52255V6.67243H115.767V6.59749Z" fill="black"/>
<path fill-rule="evenodd" clip-rule="evenodd" d="M121.166 5.47344H121.313C121.387 5.77319 121.461 6.07294 121.535 6.22282C121.757 6.52257 121.979 6.67246 122.423 6.67246C122.645 6.67246 122.793 6.59751 122.94 6.52258C123.088 6.3727 123.088 6.22282 123.088 6.07295C123.088 5.92307 123.088 5.84813 123.014 5.69825C122.94 5.62331 122.793 5.47344 122.645 5.3985L122.201 5.09874C121.831 4.94887 121.609 4.72405 121.461 4.57417C121.313 4.34936 121.239 4.19948 121.239 3.89973C121.239 3.59997 121.313 3.30022 121.535 3.15034C121.757 2.92553 122.053 2.85059 122.349 2.85059C122.497 2.85059 122.645 2.85059 122.867 2.92553C123.014 3.00047 123.162 3.00047 123.162 3.00047C123.236 3.00047 123.236 3.00047 123.236 3.00047L123.31 2.92553H123.458V4.12454H123.31C123.236 3.82479 123.162 3.67491 123.088 3.52503C122.94 3.22528 122.645 3.0754 122.349 3.0754C122.127 3.0754 121.979 3.15034 121.905 3.22528C121.757 3.37516 121.757 3.52504 121.757 3.67491C121.757 3.89973 121.979 4.19948 122.349 4.34936L122.867 4.64911C123.458 4.94887 123.754 5.32356 123.754 5.77319C123.754 6.07294 123.606 6.3727 123.384 6.59751C123.162 6.82233 122.793 6.89727 122.423 6.89727C122.275 6.89727 122.053 6.89727 121.831 6.82233C121.609 6.74739 121.461 6.74739 121.461 6.74739H121.387L121.313 6.82233H121.166V5.47344Z" fill="black"/>
<path fill-rule="evenodd" clip-rule="evenodd" d="M124.863 0.977023C124.937 0.902085 125.011 0.827148 125.159 0.827148C125.307 0.827148 125.381 0.902085 125.455 0.977023C125.529 1.05196 125.603 1.20184 125.603 1.27678C125.603 1.42666 125.529 1.5016 125.455 1.57653C125.381 1.65147 125.233 1.72641 125.159 1.72641C125.011 1.72641 124.937 1.65147 124.863 1.57653C124.789 1.5016 124.715 1.35172 124.715 1.27678C124.715 1.20184 124.789 1.1269 124.863 0.977023ZM124.198 6.67236C124.494 6.67236 124.715 6.59742 124.789 6.52248C124.863 6.44754 124.937 6.22273 124.937 5.92297V3.89963C124.937 3.74975 124.937 3.59987 124.863 3.52494C124.789 3.37506 124.715 3.37506 124.642 3.37506H124.568C124.568 3.37506 124.42 3.37506 124.346 3.45V3.30012L124.494 3.22518C125.011 3.0753 125.307 2.92543 125.529 2.85049C125.603 2.85049 125.677 2.77555 125.677 2.77555V2.85049V5.84803C125.677 6.14778 125.677 6.3726 125.825 6.44754C125.899 6.52248 126.047 6.59741 126.343 6.59741V6.7473H124.346V6.67236H124.198Z" fill="black"/>
<path fill-rule="evenodd" clip-rule="evenodd" d="M128.561 6.3726C128.117 6.3726 127.822 6.22272 127.674 5.84803C127.452 5.47334 127.378 5.09864 127.378 4.64901C127.378 4.19938 127.452 3.82469 127.674 3.52493C127.896 3.22518 128.117 3.0753 128.487 3.0753C128.635 3.0753 128.857 3.15025 129.079 3.30012C129.301 3.45 129.375 3.67482 129.375 4.04951V5.84803C129.375 5.99791 129.301 6.07284 129.153 6.22272C128.931 6.29766 128.783 6.3726 128.561 6.3726ZM128.413 2.77555C127.896 2.77555 127.452 3.00037 127.156 3.45C126.786 3.89963 126.638 4.4242 126.638 5.02371C126.638 5.54828 126.786 5.92297 127.082 6.29766C127.378 6.67236 127.748 6.82223 128.191 6.82223C128.487 6.82223 128.709 6.74729 128.857 6.59741C129.005 6.52248 129.079 6.3726 129.227 6.22272V6.74729V6.82223L129.892 6.59741C130.262 6.44754 130.484 6.3726 130.484 6.3726V6.22272H130.41H130.336C130.114 6.22272 130.04 6.22272 129.966 6.14778C129.892 6.07284 129.892 5.92297 129.892 5.77309V2.32592C129.892 2.17604 129.892 2.02617 129.892 1.80135C129.892 1.65147 129.892 1.50159 129.892 1.27678V0.827148C129.819 0.902087 129.745 0.902086 129.671 0.902086C129.597 0.902086 129.449 0.977023 129.375 0.977023C129.227 0.977023 129.153 1.05197 129.005 1.05197L128.635 1.1269V1.27678C128.709 1.27678 128.783 1.27678 128.783 1.27678H128.857C129.005 1.27678 129.079 1.27678 129.153 1.35172C129.227 1.42665 129.227 1.50159 129.227 1.72641V3.0753C129.153 3.00037 129.005 2.92543 128.931 2.85049C128.783 2.85049 128.635 2.77555 128.413 2.77555Z" fill="black"/>
<path fill-rule="evenodd" clip-rule="evenodd" d="M132.333 3.07515C132.629 3.07515 132.851 3.22502 132.999 3.44984C133.073 3.59972 133.147 3.82453 133.147 4.04935H131.446C131.446 3.82453 131.52 3.59972 131.667 3.44984C131.815 3.22502 132.037 3.07515 132.333 3.07515ZM132.629 2.77539C132.111 2.77539 131.667 3.00021 131.372 3.3749C131.076 3.74959 130.854 4.27416 130.854 4.87367C130.854 5.39824 131.002 5.84787 131.298 6.22256C131.593 6.59726 131.963 6.82207 132.481 6.82207C132.925 6.82207 133.294 6.6722 133.59 6.37244C133.886 6.07269 134.108 5.69799 134.256 5.39824L134.108 5.3233C133.96 5.62306 133.738 5.84787 133.59 5.99775C133.368 6.14763 133.147 6.22256 132.851 6.22256C132.481 6.22256 132.185 6.07269 131.889 5.77293C131.593 5.47318 131.446 5.02355 131.446 4.3491H134.034C134.034 3.82453 133.886 3.44984 133.59 3.22502C133.294 2.92527 132.999 2.77539 132.629 2.77539Z" fill="black"/>
<path fill-rule="evenodd" clip-rule="evenodd" d="M135.143 6.74743C135.069 6.67249 134.996 6.52262 134.996 6.44768C134.996 6.2978 135.069 6.22286 135.143 6.14792C135.217 6.07298 135.365 5.99805 135.439 5.99805C135.587 5.99805 135.661 6.07298 135.735 6.14792C135.809 6.22286 135.883 6.37274 135.883 6.44768C135.883 6.59755 135.809 6.67249 135.735 6.74743C135.661 6.82237 135.513 6.89731 135.439 6.89731C135.291 6.89731 135.217 6.82237 135.143 6.74743Z" fill="black"/>
<path fill-rule="evenodd" clip-rule="evenodd" d="M132.777 31.8519C132.777 33.5005 134.108 34.7745 135.735 34.7745C137.362 34.7745 138.693 33.5005 138.693 31.8519C138.693 30.2032 137.362 28.9292 135.735 28.9292C134.108 28.8543 132.777 30.2032 132.777 31.8519ZM133.147 31.8519C133.147 30.428 134.256 29.229 135.661 29.229C137.066 29.229 138.25 30.3531 138.25 31.8519C138.25 33.2757 137.14 34.3998 135.661 34.3998C134.256 34.3998 133.147 33.2757 133.147 31.8519Z" fill="black"/>
<path fill-rule="evenodd" clip-rule="evenodd" d="M134.848 30.4279H136.031C136.475 30.4279 136.697 30.6527 136.697 31.0274C136.697 31.4021 136.549 31.7019 136.031 31.7019H134.848V30.4279ZM134.848 32.1515H136.031C136.401 32.1515 136.549 32.3763 136.623 32.751C136.623 32.9009 136.623 33.0508 136.697 33.1257C136.697 33.3505 136.77 33.5004 136.77 33.5753H137.288V33.5004C137.214 33.4255 137.214 33.2756 137.14 33.0508C137.14 32.9009 137.14 32.8259 137.066 32.6761C136.992 32.3014 136.918 32.0016 136.623 31.9267C136.918 31.8517 137.14 31.4771 137.14 31.0274C137.14 30.4279 136.77 30.0532 136.031 30.0532H134.33V33.5753H134.774V32.1515H134.848Z" fill="black"/>
</svg>
