<svg width="74" height="98" viewBox="0 0 74 98" fill="none" xmlns="http://www.w3.org/2000/svg">
<path d="M18.4789 69.2776C16.8233 67.6155 17.6796 68.0931 13.7025 67.0041C11.8947 66.5265 10.2962 65.5712 8.86901 64.4631L0.229636 85.7273C-0.60766 87.7907 0.952755 90.026 3.16017 89.9305L13.1887 89.5484L20.0774 96.8657C21.5997 98.4706 24.2638 97.9738 25.1011 95.9104L35.0155 71.5321C32.9603 72.6784 30.6577 73.3662 28.2981 73.3662C24.5873 73.3662 21.1049 71.9142 18.4789 69.2776ZM72.846 85.7273L64.2067 64.4822C62.7604 65.6094 61.181 66.5456 59.3732 67.0232C55.358 68.0931 56.2333 67.6346 54.5968 69.2968C51.9707 71.9333 48.4883 73.3853 44.7776 73.3853C42.4179 73.3853 40.1154 72.7166 38.0602 71.5512L47.9555 95.9104C48.7928 97.9738 51.4569 98.4706 52.9793 96.8657L59.868 89.5484L69.8965 89.9305C72.1229 90.026 73.6833 87.7907 72.846 85.7273ZM50.0487 64.9598C52.9603 61.9985 53.2838 62.2469 57.4322 61.1197C60.0773 60.3937 62.1515 58.2921 62.8556 55.5791C64.2828 50.1532 63.9022 50.8028 67.8032 46.8289C69.7442 44.842 70.4864 41.9762 69.7823 39.2632C68.3551 33.8373 68.3551 34.6015 69.7823 29.1756C70.4864 26.4817 69.7442 23.5968 67.8032 21.6099C63.9212 17.636 64.2828 18.2856 62.8556 12.8597C62.1515 10.1658 60.0773 8.04513 57.4322 7.31913C52.123 5.86712 52.77 6.24923 48.8689 2.27533C46.9469 0.326584 44.1116 -0.456733 41.4855 0.269268C36.1763 1.72127 36.9184 1.72127 31.6092 0.269268C28.9641 -0.456733 26.1478 0.307479 24.2067 2.29443C20.3247 6.26833 20.9527 5.88623 15.6625 7.33823C13.0174 8.06423 10.9432 10.1658 10.2391 12.8788C8.81192 18.3047 9.19251 17.6551 5.29147 21.629C3.35047 23.5968 2.58929 26.4818 3.31241 29.1947C4.73962 34.6206 4.73962 33.8564 3.31241 39.2823C2.60832 41.9762 3.35047 44.8611 5.29147 46.848C9.17348 50.8219 8.81192 50.1723 10.2391 55.5982C10.9432 58.2921 13.0174 60.4128 15.6625 61.1388C19.9251 62.3042 20.2486 62.1132 23.046 64.979C25.5578 67.5582 29.4779 68.0167 32.5036 66.0871C34.9774 64.5204 38.1363 64.5204 40.5911 66.0871C43.6168 67.9976 47.5369 67.5391 50.0487 64.9598ZM18.5931 33.6271C18.5931 23.5013 26.6235 15.286 36.5378 15.286C46.4522 15.286 54.4826 23.5013 54.4826 33.6271C54.4826 43.7529 46.4522 51.9682 36.5378 51.9682C26.6235 51.9682 18.5931 43.7529 18.5931 33.6271Z" fill="#BED73D"/>
</svg>
