<svg width="123" height="26" viewBox="0 0 123 26" fill="none" xmlns="http://www.w3.org/2000/svg">
<path fill-rule="evenodd" clip-rule="evenodd" d="M10.5085 18.3488C12.466 21.5472 16.0548 23.7013 20.0351 23.7013C25.9076 23.7013 29.1701 18.6099 29.1701 18.6099L29.5616 19.9806C26.8211 23.5055 21.9273 25.6595 16.5116 25.6595C10.2475 25.6595 4.83176 22.6569 2.35225 18.3488C1.43875 16.7169 0.916748 14.8892 0.916748 12.9963C0.916748 6.0119 7.89853 0.333008 16.5768 0.333008C22.7103 0.333008 27.6041 2.94399 30.2141 6.72992L19.9046 12.8657L25.7771 3.85784C24.0806 2.81344 22.0578 1.83432 19.9046 1.83432C13.9016 1.83432 8.94253 6.86046 8.94253 12.8657C8.94253 14.824 9.52978 16.7169 10.5085 18.3488Z" fill="black"/>
<path fill-rule="evenodd" clip-rule="evenodd" d="M37.9136 18.3487C37.9136 18.5445 37.8484 18.7404 37.8484 18.9362C37.8484 21.2208 39.6754 23.0485 41.9591 23.0485C44.2429 23.0485 46.0699 21.2208 46.0699 18.9362C46.0699 18.7404 46.0699 18.5445 46.0047 18.2834C45.6784 16.3252 43.9819 14.7586 41.9591 14.7586C39.9364 14.8239 38.2399 16.3905 37.9136 18.3487ZM53.2474 18.3487L55.2702 25.2678H48.0927L46.6572 20.5681C45.6784 23.3096 42.5464 25.2678 38.6966 25.2678C34.1291 25.2678 30.4751 22.3957 30.4751 18.8709C30.4751 18.6751 30.4751 18.5445 30.4751 18.3487C30.8013 15.0197 34.3249 12.4087 38.6966 12.4087C41.1761 12.4087 43.3294 13.2573 44.8954 14.5628L42.9379 8.03534H34.7164C34.7164 8.03534 36.0866 7.18676 42.1549 4.96743C48.2232 2.74809 50.1807 8.03534 50.1807 8.03534L53.2474 18.3487Z" fill="black"/>
<path fill-rule="evenodd" clip-rule="evenodd" d="M76.2156 18.3488V25.2679H68.8423V18.3488V10.0589C68.8423 8.94926 67.9288 8.03541 66.8195 8.03541C65.9713 8.03541 65.2535 8.55761 64.9273 9.3409V18.3488V25.2679H57.6845V18.3488V8.03541H53.4432C53.4432 8.03541 59.3158 4.44531 61.4038 4.44531C63.3613 4.44531 64.7968 5.94663 64.9273 7.83959C67.7983 6.273 70.6041 4.44531 72.5616 4.44531C74.5843 4.44531 76.2156 6.07718 76.2808 8.03541V18.3488H76.2156Z" fill="black"/>
<path fill-rule="evenodd" clip-rule="evenodd" d="M87.6344 18.3486L88.6784 21.7429C88.6784 23.179 89.9181 24.3539 91.3536 24.3539C92.8544 24.3539 94.0941 23.1137 94.0941 21.6124C94.0941 21.4818 94.0941 21.4165 94.0941 21.286L93.2459 18.2834L90.1791 7.77416C90.0486 6.4034 88.8741 5.359 87.5039 5.359C86.1336 5.359 84.7633 6.66449 84.6328 7.96998L87.6344 18.3486ZM99.3794 18.3486C98.0092 22.5915 93.9636 25.6594 89.2656 25.6594C84.5676 25.6594 80.5221 22.5915 79.1518 18.3486C78.8256 17.3042 78.6298 16.1946 78.6298 15.0196C78.6298 9.14493 83.3931 4.37988 89.2656 4.37988C95.1381 4.37988 99.9014 9.14493 99.9014 15.0196C99.9014 16.1946 99.7709 17.3042 99.3794 18.3486Z" fill="black"/>
<path fill-rule="evenodd" clip-rule="evenodd" d="M111.646 18.3488V25.2679H104.404V18.3488V8.03541H100.358C100.358 8.03541 106.1 4.44531 108.123 4.44531C110.08 4.44531 111.516 5.94663 111.646 7.83959C114.517 6.273 117.323 4.44531 119.281 4.44531C121.303 4.44531 122.935 6.07718 123 8.03541V18.2835V25.2026H115.627V18.2835V10.0589C115.627 8.94926 114.713 8.03541 113.604 8.03541C112.756 8.03541 112.038 8.55761 111.712 9.3409V18.3488H111.646Z" fill="black"/>
</svg>
