<svg width="20" height="20" viewBox="0 0 20 20" fill="none" xmlns="http://www.w3.org/2000/svg">
<path d="M10 0C4.47581 0 0 4.47581 0 10C0 15.5242 4.47581 20 10 20C15.5242 20 20 15.5242 20 10C20 4.47581 15.5242 0 10 0ZM10 1.93548C14.4556 1.93548 18.0645 5.54435 18.0645 10C18.0645 14.4556 14.4556 18.0645 10 18.0645C5.54435 18.0645 1.93548 14.4556 1.93548 10C1.93548 5.54435 5.54435 1.93548 10 1.93548ZM15.6532 7.18952L14.746 6.27419C14.5565 6.08468 14.25 6.08468 14.0605 6.27016L8.35887 11.9234L5.94758 9.49193C5.75806 9.30242 5.45161 9.30242 5.2621 9.4879L4.34677 10.3952C4.15726 10.5847 4.15726 10.8911 4.34274 11.0806L8.00403 14.7702C8.19355 14.9597 8.5 14.9597 8.68952 14.7742L15.6492 7.87097C15.8387 7.68548 15.8427 7.37903 15.6532 7.18952Z" fill="#BED73D"/>
</svg>
