<svg width="75" height="66" viewBox="0 0 75 66" fill="none" xmlns="http://www.w3.org/2000/svg">
<path d="M67.9688 33H56.25V23.5714C56.25 18.371 60.4541 14.1429 65.625 14.1429H66.7969C68.7451 14.1429 70.3125 12.5665 70.3125 10.6071V3.53571C70.3125 1.57634 68.7451 0 66.7969 0H65.625C52.6758 0 42.1875 10.5482 42.1875 23.5714V58.9286C42.1875 62.8326 45.3369 66 49.2188 66H67.9688C71.8506 66 75 62.8326 75 58.9286V40.0714C75 36.1674 71.8506 33 67.9688 33ZM25.7812 33H14.0625V23.5714C14.0625 18.371 18.2666 14.1429 23.4375 14.1429H24.6094C26.5576 14.1429 28.125 12.5665 28.125 10.6071V3.53571C28.125 1.57634 26.5576 0 24.6094 0H23.4375C10.4883 0 0 10.5482 0 23.5714V58.9286C0 62.8326 3.14941 66 7.03125 66H25.7812C29.6631 66 32.8125 62.8326 32.8125 58.9286V40.0714C32.8125 36.1674 29.6631 33 25.7812 33Z" fill="black"/>
</svg>
