<svg width="111" height="39" viewBox="0 0 111 39" fill="none" xmlns="http://www.w3.org/2000/svg">
<path d="M0.129883 30.9272H5.10417V31.9728H1.33459V33.7929H4.83214V34.7611H1.33459V36.7748H5.22075V37.8204H0.168744V30.9272H0.129883Z" fill="black"/>
<path d="M6.15346 30.9272H7.59134L9.14581 33.367L10.778 30.9272H12.1382L9.84532 34.2576L12.2936 37.8204H10.8169L9.10695 35.1871L7.35817 37.8204H5.99802L8.4463 34.2576L6.15346 30.9272Z" fill="black"/>
<path d="M17.8508 33.1346C17.6565 32.3213 17.1513 31.7792 16.1409 31.7792C14.6641 31.7792 14.0424 33.0958 14.0424 34.4125C14.0424 35.7292 14.6641 37.0459 16.1409 37.0459C17.229 37.0459 17.8119 36.2326 17.8897 35.2258H19.0555C18.9778 36.891 17.7731 38.014 16.102 38.014C14.0424 38.014 12.7988 36.3875 12.7988 34.4125C12.7988 32.4375 14.0424 30.811 16.102 30.811C17.6565 30.811 18.9001 31.663 19.0555 33.1733H17.8508V33.1346Z" fill="black"/>
<path d="M20.8043 30.9272H25.8175V31.9728H22.0479V33.7929H25.5454V34.7611H22.0479V36.7748H25.8952V37.8204H20.8432V30.9272H20.8043Z" fill="black"/>
<path d="M27.7217 30.9272H32.696V31.9728H28.9264V33.7929H32.4239V34.7611H28.9264V36.7748H32.7737V37.8204H27.7217V30.9272Z" fill="black"/>
<path d="M34.6002 30.9272H37.4759C39.6133 30.9272 40.546 32.4763 40.546 34.3738C40.546 36.2714 39.6133 37.8204 37.4759 37.8204H34.6002V30.9272ZM35.8049 36.8523H37.0096C38.9138 36.8523 39.3024 35.7679 39.3024 34.3738C39.3024 32.9797 38.875 31.8954 37.0096 31.8954H35.8049V36.8523Z" fill="black"/>
<path d="M46.6861 35.1096L44.0824 30.9272H45.4814L47.3079 34.0253L49.0955 30.9272H50.4557L47.852 35.1096V37.8204H46.6473V35.1096H46.6861Z" fill="black"/>
<path d="M57.3731 34.3739C57.3731 36.3489 56.1295 37.9754 54.0698 37.9754C52.0102 37.9754 50.7666 36.3489 50.7666 34.3739C50.7666 32.3989 52.0102 30.7725 54.0698 30.7725C56.1295 30.7725 57.3731 32.3989 57.3731 34.3739ZM51.9713 34.3739C51.9713 35.6906 52.5931 37.0073 54.0698 37.0073C55.5466 37.0073 56.1684 35.6906 56.1684 34.3739C56.1684 33.0573 55.5466 31.7406 54.0698 31.7406C52.5931 31.7406 51.9713 33.0573 51.9713 34.3739Z" fill="black"/>
<path d="M58.8498 30.9272H60.0545V34.9547C60.0545 35.8841 60.0934 36.9684 61.6867 36.9684C63.2412 36.9684 63.3189 35.8841 63.3189 34.9547V30.9272H64.5236V35.342C64.5236 37.1233 63.3966 37.9753 61.6867 37.9753C59.9768 37.9753 58.8498 37.0846 58.8498 35.342V30.9272Z" fill="black"/>
<path d="M66.4279 30.9272H69.7311C71.2467 30.9272 72.0239 31.6243 72.0239 32.7861C72.0239 34.1027 71.0913 34.4513 70.8969 34.5287V34.5675C71.3244 34.6062 71.9073 34.916 71.9073 36.039C71.9073 36.8523 72.0239 37.588 72.296 37.8591H71.0135C70.8192 37.5493 70.8192 37.1621 70.8192 36.8523C70.8192 35.5743 70.5472 35.0322 69.4591 35.0322H67.6714V37.8591H66.4667V30.9272H66.4279ZM67.6326 34.064H69.6145C70.3917 34.064 70.7804 33.6768 70.7804 32.9797C70.7804 32.089 70.1974 31.9341 69.5757 31.9341H67.5937V34.064H67.6326Z" fill="black"/>
<path d="M76.3764 30.9272H77.62L79.3688 36.3876L81.1564 30.9272H82.4L80.0294 37.8204H78.6693L76.3764 30.9272Z" fill="black"/>
<path d="M83.6435 30.9272H84.2264H84.8482V37.8204H83.6435V30.9272Z" fill="black"/>
<path d="M87.6074 35.5357C87.6074 36.5813 88.3846 37.0073 89.3562 37.0073C90.4054 37.0073 90.8329 36.5038 90.8329 35.9617C90.8329 35.4195 90.522 35.2259 90.25 35.1097C89.7837 34.9161 89.123 34.7999 88.1903 34.5288C87.0245 34.219 86.6747 33.4833 86.6747 32.7862C86.6747 31.3921 87.9572 30.7725 89.2007 30.7725C90.6386 30.7725 91.8433 31.547 91.8433 32.9798H90.6386C90.5609 32.0891 89.978 31.7406 89.123 31.7406C88.5789 31.7406 87.8406 31.9342 87.8406 32.6313C87.8406 33.096 88.1515 33.3671 88.6567 33.522C88.7733 33.5607 90.2889 33.948 90.6386 34.0641C91.5324 34.3352 91.9988 35.1097 91.9988 35.8455C91.9988 37.3945 90.6386 38.0141 89.2396 38.0141C87.6463 38.0141 86.3638 37.2396 86.3638 35.5357H87.6074Z" fill="black"/>
<path d="M93.6698 30.9272H94.2528H94.8745V37.8204H93.6698V30.9272Z" fill="black"/>
<path d="M103.113 34.3739C103.113 36.3489 101.87 37.9754 99.81 37.9754C97.7503 37.9754 96.5067 36.3489 96.5067 34.3739C96.5067 32.3989 97.7503 30.7725 99.81 30.7725C101.87 30.7725 103.113 32.3989 103.113 34.3739ZM97.6726 34.3739C97.6726 35.6906 98.2944 37.0073 99.7711 37.0073C101.248 37.0073 101.87 35.6906 101.87 34.3739C101.87 33.0573 101.248 31.7406 99.7711 31.7406C98.2944 31.7406 97.6726 33.0573 97.6726 34.3739Z" fill="black"/>
<path d="M104.707 30.9272H105.989L109.137 36.0003V30.9272H110.303V37.8204H109.02L105.872 32.7473H105.834V37.8204H104.668V30.9272H104.707Z" fill="black"/>
<path d="M76.4153 0.0629883C68.9538 0.0629883 64.6402 5.63947 64.6402 13.2684C64.6402 20.8974 68.9538 26.4738 76.4153 26.4738C83.8767 26.4738 88.1903 20.8974 88.1903 13.2684C88.1903 5.63947 83.8767 0.0629883 76.4153 0.0629883ZM76.4153 22.0591C71.6742 22.0591 69.8477 17.7219 69.8477 13.3071C69.8477 8.89242 71.6742 4.55516 76.4153 4.55516C81.1564 4.55516 82.9829 8.89242 82.9829 13.3071C82.9829 17.7219 81.1564 22.0591 76.4153 22.0591Z" fill="black"/>
<path d="M0.129883 0.798828H18.8612V5.25227H5.33734V10.79H17.9674V15.1273H5.33734V21.3234H18.8612V25.7381H0.129883V0.798828Z" fill="black"/>
<path d="M21.0763 25.738H26.2838V18.2639H30.9861C37.3594 18.2639 41.6341 15.1271 41.6341 9.55066C41.6341 3.93545 37.3594 0.837402 30.9861 0.837402H21.0763V25.738ZM31.0249 13.8105H26.3227V5.25212H31.0249C34.2893 5.25212 36.4655 6.68496 36.4655 9.55066C36.4655 12.4164 34.2893 13.8105 31.0249 13.8105Z" fill="black"/>
<path d="M95.4963 0.798828H90.1334V25.7381H95.2243V15.6307C95.2243 12.8812 95.1077 10.4028 95.03 8.23414C95.6129 9.47336 97.4394 13.2297 98.2944 14.6626L104.94 25.7381H110.264V0.798828H105.173V10.6351C105.173 13.3846 105.289 16.0954 105.367 18.2641C104.784 17.0248 102.958 13.2685 102.103 11.8356L95.4963 0.798828Z" fill="black"/>
<path d="M47.58 17.4897C47.58 20.8588 50.378 22.1367 53.3703 22.1367C55.3134 22.1367 58.4612 21.5558 58.4612 18.9999C58.4612 16.2892 54.6139 15.7857 50.8832 14.7789C46.997 13.7333 43.2275 12.3004 43.2275 7.65335C43.2275 2.50285 48.124 0.0244141 52.6708 0.0244141C57.956 0.0244141 62.8137 2.30922 62.8137 8.15679H57.6062C57.4119 5.13619 55.0802 4.36168 52.4377 4.36168C50.65 4.36168 48.4349 5.09746 48.4349 7.22737C48.4349 9.16365 49.7173 9.47346 56.0518 11.0999C57.8783 11.5646 63.6687 12.6877 63.6687 18.3803C63.6687 22.9887 60.0157 26.474 53.1372 26.474C47.5411 26.474 42.2948 23.7245 42.3725 17.5284H47.58V17.4897Z" fill="black"/>
</svg>
