<svg width="92" height="73" viewBox="0 0 92 73" fill="none" xmlns="http://www.w3.org/2000/svg">
<path d="M45.1688 48.5136C56.9586 48.5136 66.4517 38.413 66.4517 26.0168C66.4517 13.6205 56.9586 3.51992 45.1688 3.51992C44.7094 3.51992 44.2501 3.51992 43.9438 3.51992L45.1688 0H78.8539C81.9162 0 84.2129 2.44864 84.2129 5.66247V46.6772C84.2129 49.7379 81.7631 52.3396 78.8539 52.3396H43.9438L45.1688 48.5136Z" fill="black"/>
<path d="M33.5321 0H5.35901C2.44983 0 0 2.44864 0 5.66247V46.6772C0 49.7379 2.44983 52.3396 5.35901 52.3396H32.3071L33.8383 48.2076C24.3452 45.9119 17.1488 36.7296 17.1488 25.7107C17.1488 15.457 23.4265 6.73375 32.0009 3.67296L33.5321 0Z" fill="black"/>
<path d="M50.2215 33.8219H47.4655L52.8245 18.824H55.7336L50.2215 33.8219ZM57.4179 15.7632H48.231L35.2163 52.3397H40.8815L46.3937 36.7296H52.0589C53.2838 36.7296 54.815 36.4236 55.5805 34.434C56.193 32.5976 59.7146 22.803 60.7864 19.8953C61.552 16.9875 59.2553 15.7632 57.4179 15.7632Z" fill="black"/>
<path d="M43.1782 20.5073L37.6661 36.1174H32.154L38.2786 18.9769H35.2163L29.0917 36.1174H23.4265L36.4412 0H42.1064L36.4412 15.9161H40.269C42.872 15.9161 44.0969 18.0587 43.1782 20.5073Z" fill="black"/>
<path d="M37.6662 66.8784H35.8288L34.6039 70.0923L33.2259 66.8784H31.5416L33.9915 72.6939H35.2164L37.6662 66.8784Z" fill="black"/>
<path d="M20.058 66.5723C19.2924 66.5723 18.8331 67.0314 18.5268 67.4905V66.8783H16.8426V72.6939H18.5268V68.7148C18.68 68.4087 18.9862 68.1027 19.4455 68.1027C20.2111 68.1027 20.3642 68.5618 20.3642 69.0209V72.6939H22.0485V69.0209C22.3547 67.7966 21.5891 66.5723 20.058 66.5723Z" fill="black"/>
<path d="M65.2267 66.5723C64.4611 66.5723 64.0018 67.0314 63.6955 67.4905V66.8783H62.0113V72.6939H63.6955V68.7148C63.8487 68.4087 64.1549 68.1027 64.6142 68.1027C65.3798 68.1027 65.5329 68.5618 65.5329 69.0209V72.6939H67.2172V69.0209C67.5234 67.7966 66.7578 66.5723 65.2267 66.5723Z" fill="black"/>
<path d="M5.8183 72.6939V66.8784" stroke="black" stroke-width="1.133" stroke-miterlimit="10"/>
<path d="M5.81838 65.501C6.43084 65.501 6.89018 65.0418 6.89018 64.4297C6.89018 63.8175 6.43084 63.3584 5.81838 63.3584C5.20593 63.3584 4.74658 63.8175 4.74658 64.4297C4.74658 65.0418 5.20593 65.501 5.81838 65.501Z" fill="black"/>
<path d="M49.3029 67.9496C49.7622 67.9496 50.2215 68.4087 50.5278 69.0209H48.2311C48.2311 68.4087 48.6904 67.9496 49.3029 67.9496ZM49.3029 71.6226C48.6904 71.6226 48.0779 71.0104 48.0779 70.0922H52.212C52.212 70.0922 52.212 69.9391 52.212 69.7861C52.212 68.1027 50.834 66.5723 49.3029 66.5723C47.6186 66.5723 46.3937 67.9496 46.3937 69.7861C46.3937 71.4695 47.7717 72.9999 49.3029 72.9999C50.5278 72.9999 51.5996 72.2347 52.0589 71.0104H50.3747C50.0684 71.3165 49.6091 71.6226 49.3029 71.6226Z" fill="black"/>
<path d="M80.232 66.8787H79.1602V64.8892H77.3228V66.8787H76.8635V68.256H77.3228V72.6942H79.1602V68.256H80.232V66.8787Z" fill="black"/>
<path d="M88.9595 1.9894V1.2242H89.4189C89.7251 1.2242 90.0313 1.2242 90.0313 1.53028C90.0313 1.9894 89.7251 1.9894 89.4189 1.9894H88.9595ZM88.9595 2.29548H89.4189L90.0313 3.36675H90.4907L89.7251 2.29548C90.0313 2.29548 90.3376 1.9894 90.3376 1.53028C90.3376 1.07116 90.0313 0.765077 89.4189 0.765077H88.5002V3.36675H88.9595V2.29548ZM89.4189 4.43803C90.6438 4.43803 91.5625 3.51979 91.5625 2.29548C91.5625 1.07116 90.4907 0.152918 89.4189 0.152918C88.194 -0.000122115 87.2753 0.918117 87.2753 2.14244C87.2753 3.51979 88.194 4.43803 89.4189 4.43803ZM87.7346 2.14244C87.7346 1.07116 88.5002 0.305958 89.572 0.305958C90.4907 0.305958 91.4094 1.07116 91.4094 2.14244C91.4094 3.21371 90.6438 3.97891 89.572 3.97891C88.5002 3.97891 87.7346 3.21371 87.7346 2.14244Z" fill="black"/>
</svg>
