<svg width="132" height="34" viewBox="0 0 132 34" fill="none" xmlns="http://www.w3.org/2000/svg">
<path fill-rule="evenodd" clip-rule="evenodd" d="M84.5719 23.6715L79.9565 33.4297L75.4156 23.597L79.9565 13.8389L84.5719 23.6715Z" fill="black"/>
<path fill-rule="evenodd" clip-rule="evenodd" d="M6.70659 22.1816C6.70659 16.1479 6.70659 9.96525 6.70659 3.70811C6.70659 2.59076 7.37656 1.47341 8.7165 1.5479V0.728516H0.230225V1.5479C1.71904 1.47341 2.24013 2.81423 2.24013 4.00607C2.24013 9.51831 2.24013 15.0306 2.24013 20.5428C2.24013 21.6601 1.49572 22.7775 0.230225 22.703V23.5224H14.2996L15.4162 17.4142H14.6718C13.704 21.0642 10.2798 23.0755 6.70659 22.1816Z" fill="black"/>
<path fill-rule="evenodd" clip-rule="evenodd" d="M31.4954 18.6804C29.7089 22.1069 25.4657 22.4793 22.0414 22.2559V14.9559C24.4235 14.9559 26.6568 15.7753 27.029 18.5314H27.8478V10.7844H27.029C26.5823 13.4661 24.1258 13.764 22.0414 13.764V6.61301H26.2846C28.5178 6.61301 30.1555 8.54974 30.6766 10.6355H31.4954V5.42117L15.4162 5.34668V6.16607C16.905 6.09158 17.3516 7.73035 17.3516 8.69872L17.4261 20.3191C17.4261 21.064 17.2028 21.6599 16.7561 22.2559C16.3095 22.4793 15.7884 22.6283 15.4162 22.6283V23.4477H31.2721L32.3887 18.6059H31.4954V18.6804Z" fill="black"/>
<path fill-rule="evenodd" clip-rule="evenodd" d="M128.79 21.511L121.197 12.6467L125.142 8.99668C126.184 8.17729 127.152 7.20892 128.269 6.53852C128.715 6.31505 129.236 6.16607 129.683 6.16607V5.34668L122.835 5.42117V6.38954H123.951C124.175 6.38954 124.323 6.38954 124.472 6.53852C124.696 7.20892 123.951 7.73035 123.653 8.02831L117.326 14.062L123.653 21.7344C123.728 21.8089 123.802 21.8834 123.877 21.9579V22.1814L123.653 22.4048C123.132 22.5538 122.537 22.5538 122.016 22.5538V23.3732H131.246V22.5538C130.13 22.7028 129.385 22.2559 128.79 21.511Z" fill="black"/>
<path fill-rule="evenodd" clip-rule="evenodd" d="M62.9095 16.6694L58.2198 5.42139H44.1504V6.16628C44.8204 6.16628 45.4159 6.24078 46.0114 6.38976C46.0114 7.13465 45.3415 7.80506 44.8204 8.40098L42.2894 11.5296L39.7584 7.5071C39.6095 7.58159 39.3862 7.13465 39.3862 6.83669C39.3862 6.16629 40.875 6.24078 41.3216 6.24078V5.49588H32.2398V6.31527H33.0587C33.7287 6.31527 34.1009 6.91119 34.3986 7.43261L39.4606 15.1051L34.1753 21.8091C33.8031 22.3306 32.9098 22.7775 32.1654 22.7775V23.5969H38.6418L38.5673 22.7775C38.0462 22.7775 37.5996 22.7775 37.153 22.703L36.9296 22.554L36.7807 22.1816C36.9296 21.5857 37.3018 21.0642 37.5996 20.6918L40.8006 16.8183L43.5549 21.0642C43.6293 21.1387 44.0015 21.7347 44.076 21.8836C44.076 21.8836 44.1504 22.0326 44.1504 22.1071L44.076 22.3306L43.9271 22.554C43.3316 22.703 42.736 22.703 42.1405 22.703V23.5224H57.1776V22.703C56.8054 22.703 56.5076 22.6285 56.1354 22.554L55.9121 22.3306C55.4654 21.8091 55.3166 21.1387 55.391 20.4683V8.62445L61.7185 23.5969H62.4629L68.5671 8.17751V20.7663C68.5671 21.8836 67.7482 22.7775 66.6316 22.703V23.5224H74.3735V22.703C73.1824 22.7775 72.438 21.7347 72.438 20.6918V8.40098C72.438 7.13465 73.0335 6.16628 74.3735 6.16628V5.42139H67.3016L62.9095 16.6694ZM53.3066 20.1704C53.3066 20.3193 53.3066 20.3938 53.3066 20.5428C53.2322 20.8408 53.3066 21.2132 53.2322 21.5112C53.1578 21.9581 52.7856 22.3306 52.4878 22.6285C51.1479 23.15 49.659 22.6285 48.9891 21.5857L43.406 13.3918L47.7236 7.87955C48.6913 6.76221 49.8824 6.24078 51.2967 6.24078C52.6367 6.24078 53.3066 6.8367 53.3066 8.17751V20.1704Z" fill="black"/>
<path fill-rule="evenodd" clip-rule="evenodd" d="M119.336 6.24094V5.42155H110.85L110.775 6.24094C112.041 6.16645 112.934 7.28379 112.934 8.40114V20.394C112.934 21.0644 112.711 21.6603 112.338 22.2562C111.52 23.2246 110.477 22.5542 109.882 21.8093L104.82 14.6583C106.234 14.4348 107.723 13.8389 108.691 12.6471C109.212 11.9767 109.51 11.2318 109.51 10.4124C109.51 6.76237 105.266 5.49604 102.214 5.49604H93.207V6.31543C94.2492 6.31543 95.1425 6.76236 95.1425 7.9542V21.2879C95.1425 22.1073 94.547 22.7777 93.7281 22.7777C92.9093 22.7777 92.0904 22.1073 91.8671 21.2879L84.4974 4.3042L82.0409 9.51849L87.5495 21.5858C88.1451 22.8522 86.4329 22.7777 85.6885 22.7777V23.5971H101.768V22.7777C100.502 22.7777 99.7579 22.1073 99.7579 20.7665V6.53889C102.661 6.53889 104.969 7.06032 104.969 10.5613C104.969 13.3175 102.661 14.7328 99.9812 14.2858L106.309 23.5226H119.559V22.7032C119.038 22.7032 118.517 22.5542 117.996 22.1818C117.847 21.7348 117.475 21.2134 117.475 20.692V14.0624V7.9542C117.326 6.98583 118.294 6.16645 119.336 6.24094Z" fill="black"/>
</svg>
