<svg width="132" height="44" viewBox="0 0 132 44" fill="none" xmlns="http://www.w3.org/2000/svg">
<path fill-rule="evenodd" clip-rule="evenodd" d="M114.661 27.0292C125.753 21.5915 131.931 15.4088 130.964 10.269C129.028 -0.531992 96.423 -2.24526 62.7012 3.71392C47.3664 6.47005 32.627 10.567 22.6519 14.6639C23.173 14.6639 23.5452 14.6639 23.5452 14.6639C27.8628 14.8129 27.5651 17.4945 27.5651 17.4945V19.1333H24.1408V18.016C24.1408 17.1966 23.173 17.1966 23.173 17.1966C22.4286 17.1966 22.2797 17.718 22.2797 17.718C21.9075 18.4629 22.5775 19.1333 22.5775 19.1333C22.9497 19.5058 24.7363 20.3252 24.7363 20.3252C25.3318 20.5486 26.2251 21.1445 26.2251 21.1445C27.9373 22.1874 27.7884 24.1986 27.7884 24.1986V25.5394C27.5651 28.817 23.0986 28.7425 23.0986 28.7425C18.4088 28.7425 18.4832 25.6139 18.4832 25.6139V23.9752H22.1309V25.0925C22.1309 26.0609 23.0242 26.0609 23.0242 26.0609C23.9919 26.1354 24.1408 25.167 24.1408 25.167C24.2896 24.1986 23.2475 23.6027 23.2475 23.6027C22.2053 23.0813 20.4932 22.1874 20.4932 22.1874C19.6743 21.666 19.3021 21.1445 19.3021 21.1445C18.7066 20.3996 18.7066 19.2078 18.7066 19.2078V18.0905C18.7066 16.6752 19.0788 16.2282 19.0788 16.2282C19.0788 16.2282 19.0788 16.1537 19.1532 16.1537C6.87045 21.8149 -0.648088 28.4445 0.319645 33.8823C2.25511 44.9068 32.9992 46.3221 69.252 40.7354C85.9268 38.2027 100.443 33.4354 111.386 28.519C111.311 28.519 111.237 28.519 111.162 28.519C111.162 28.519 106.696 28.8915 106.621 25.316V18.3884C106.621 18.3884 106.1 14.5894 111.013 14.5894C111.013 14.5894 114.214 14.5149 115.108 16.3772C115.108 16.3772 115.554 16.8986 115.405 18.9843H111.981V17.867C111.981 17.867 111.981 16.9731 111.088 16.9731C111.088 16.9731 110.12 17.0476 110.12 17.718V24.869C110.12 24.869 110.046 25.8374 111.162 25.8374C111.162 25.8374 112.056 25.8374 112.056 24.7945V22.7088H111.088V20.7721H115.48V24.869C115.48 24.869 115.48 25.6884 115.108 26.2098C115.182 26.3588 114.81 26.8803 114.661 27.0292ZM102.006 28.1466H97.9118L94.2642 20.1762H94.1153L94.3386 28.1466H90.9144V15.1109H95.083L98.5818 23.0068H98.7307L98.5818 15.1109H102.006V28.1466ZM80.7159 24.869C80.7159 25.9864 81.7581 25.9119 81.7581 25.9119C82.7258 25.9119 82.7258 24.869 82.7258 24.869V15.0364H86.3734V25.018C86.3734 28.5935 81.8325 28.5935 81.8325 28.5935C76.6217 28.5935 76.9939 24.869 76.9939 24.869V15.0364H80.7159V24.869ZM69.1776 19.0588V17.9415C69.1776 17.1221 68.2098 17.1221 68.2098 17.1221C67.4654 17.1221 67.3166 17.6435 67.3166 17.6435C66.9443 18.3884 67.6143 19.0588 67.6143 19.0588C67.9865 19.4313 69.7731 20.2507 69.7731 20.2507C70.3686 20.4741 71.2619 21.07 71.2619 21.07C72.9741 22.1129 72.8252 24.1241 72.8252 24.1241V25.465C72.6019 28.7425 68.1354 28.668 68.1354 28.668C63.4456 28.668 63.5201 25.5394 63.5201 25.5394V23.9007H67.1677V25.018C67.1677 25.9864 68.061 25.9864 68.061 25.9864C69.0287 26.0609 69.1776 25.0925 69.1776 25.0925C69.3265 24.1241 68.2843 23.5282 68.2843 23.5282C67.2421 23.0068 65.53 22.1129 65.53 22.1129C64.7111 21.5915 64.3389 21.07 64.3389 21.07C63.7434 20.3252 63.7434 19.1333 63.7434 19.1333V18.0905C63.7434 16.6752 64.1156 16.2282 64.1156 16.2282C65.0833 14.366 68.5076 14.5894 68.5076 14.5894C72.8252 14.7384 72.5274 17.42 72.5274 17.42V19.0588H69.1776ZM51.1629 15.1109L52.2795 22.2619H52.5772L53.6938 15.1109H59.3514L59.7236 28.2211H56.2993L56.2248 18.3884H56.0015L54.2149 28.1466H50.6418L48.8552 18.3139H48.5574L48.483 28.1466H45.0587L45.4309 15.1109H51.1629ZM37.8379 28.1466L36.498 18.016H36.2002L34.8603 28.1466H31.1382L33.3714 15.1109H39.1778L41.4111 28.1466H37.8379Z" fill="black"/>
</svg>
