<svg width="15" height="20" viewBox="0 0 15 20" fill="none" xmlns="http://www.w3.org/2000/svg">
<path d="M6.7308 19.5986C1.05474 11.3677 0 10.524 0 7.50037C0 3.35954 3.35954 0 7.50037 0C11.6412 0 15.0007 3.35954 15.0007 7.50037C15.0007 10.524 13.946 11.3677 8.26993 19.5986C7.89882 20.1338 7.10191 20.1338 6.7308 19.5986ZM7.50037 10.6255C9.22701 10.6255 10.6255 9.22701 10.6255 7.50037C10.6255 5.77372 9.22701 4.37521 7.50037 4.37521C5.77372 4.37521 4.37521 5.77372 4.37521 7.50037C4.37521 9.22701 5.77372 10.6255 7.50037 10.6255Z" fill="black"/>
</svg>
