<svg width="20" height="20" viewBox="0 0 20 20" fill="none" xmlns="http://www.w3.org/2000/svg">
<path d="M10 0C4.47581 0 0 4.47581 0 10C0 15.5242 4.47581 20 10 20C15.5242 20 20 15.5242 20 10C20 4.47581 15.5242 0 10 0ZM10 18.0645C5.54435 18.0645 1.93548 14.4556 1.93548 10C1.93548 5.54435 5.54435 1.93548 10 1.93548C14.4556 1.93548 18.0645 5.54435 18.0645 10C18.0645 14.4556 14.4556 18.0645 10 18.0645ZM14.1048 7.49194L11.5968 10L14.1048 12.5081C14.2944 12.6976 14.2944 13.004 14.1048 13.1935L13.1935 14.1048C13.004 14.2944 12.6976 14.2944 12.5081 14.1048L10 11.5968L7.49194 14.1048C7.30242 14.2944 6.99597 14.2944 6.80645 14.1048L5.89516 13.1935C5.70565 13.004 5.70565 12.6976 5.89516 12.5081L8.40322 10L5.89516 7.49194C5.70565 7.30242 5.70565 6.99597 5.89516 6.80645L6.80645 5.89516C6.99597 5.70565 7.30242 5.70565 7.49194 5.89516L10 8.40322L12.5081 5.89516C12.6976 5.70565 13.004 5.70565 13.1935 5.89516L14.1048 6.80645C14.2944 6.99597 14.2944 7.30242 14.1048 7.49194Z" fill="#DE1212"/>
</svg>
