<svg width="131" height="38" viewBox="0 0 131 38" fill="none" xmlns="http://www.w3.org/2000/svg">
<path d="M112.389 37.1785C122.539 37.1785 130.767 28.8613 130.767 18.6015C130.767 8.34165 122.539 0.0244141 112.389 0.0244141C102.239 0.0244141 94.0112 8.34165 94.0112 18.6015C94.0112 28.8613 102.239 37.1785 112.389 37.1785Z" fill="black"/>
<path d="M99.6022 10.4382C104.054 3.3213 113.373 1.22811 120.465 5.7808C127.557 10.2812 129.68 19.7005 125.28 26.8174C120.827 33.9342 111.509 36.0274 104.417 31.4747C97.2726 26.9743 95.1501 17.555 99.6022 10.4382Z" fill="white"/>
<path d="M99.7571 10.4382C104.106 3.47837 113.321 1.43751 120.361 5.88554C127.35 10.3336 129.524 19.6483 125.176 26.6081C120.827 33.568 111.612 35.6088 104.623 31.1085C97.5828 26.7128 95.4085 17.4504 99.7571 10.4382Z" fill="#FEFEFE"/>
<path d="M99.9646 10.4907C104.21 3.68779 113.373 1.64693 120.258 6.09496C127.195 10.543 129.318 19.7007 125.073 26.5036C120.828 33.3064 111.716 35.295 104.779 30.8469C97.8421 26.3989 95.7196 17.2935 99.9646 10.4907Z" fill="#FDFDFD"/>
<path d="M100.172 10.4901C104.365 3.79193 113.373 1.85573 120.206 6.1991C127.04 10.5948 129.162 19.6478 124.969 26.3461C120.776 33.0443 111.82 34.9281 104.986 30.5324C98.1527 26.1367 95.9784 17.1883 100.172 10.4901Z" fill="#FCFCFC"/>
<path d="M100.327 10.4905C104.417 3.94931 113.321 2.01311 120.103 6.35648C126.884 10.6999 128.955 19.5959 124.866 26.1895C120.776 32.7307 111.975 34.5622 105.193 30.2188C98.4116 25.8755 96.2373 17.0317 100.327 10.4905Z" fill="#FBFBFB"/>
<path d="M100.534 10.4907C104.52 4.05415 113.321 2.22261 120.051 6.46132C126.781 10.7524 128.852 19.5438 124.814 25.9803C120.827 32.4169 112.13 34.1438 105.4 29.8527C98.7221 25.5617 96.5478 16.8749 100.534 10.4907Z" fill="#FAFAFA"/>
<path d="M100.741 10.4904C104.676 4.21078 113.321 2.37924 119.999 6.61795C126.626 10.8567 128.696 19.5434 124.762 25.823C120.828 32.1025 112.286 33.7771 105.659 29.5384C99.0328 25.2997 96.8067 16.7699 100.741 10.4904Z" fill="#F9F9F9"/>
<path d="M100.948 10.4906C104.779 4.36804 113.373 2.5365 119.896 6.72288C126.47 10.9093 128.489 19.4913 124.658 25.6139C120.828 31.7365 112.389 33.3587 105.866 29.1723C99.2916 24.986 97.0656 16.6132 100.948 10.4906Z" fill="#F8F8F8"/>
<path d="M101.104 10.4907C104.831 4.47273 113.321 2.74585 119.792 6.8799C126.263 11.014 128.282 19.439 124.555 25.457C120.828 31.4749 112.493 32.9924 106.022 28.8584C99.6022 24.7243 97.3762 16.5086 101.104 10.4907Z" fill="#F7F7F7"/>
<path d="M101.311 10.4904C104.986 4.62952 113.321 2.90264 119.74 6.98436C126.16 11.0661 128.179 19.3865 124.503 25.2474C120.828 31.1084 112.7 32.5736 106.28 28.4919C99.8611 24.4625 97.635 16.3514 101.311 10.4904Z" fill="#F6F6F6"/>
<path d="M101.518 10.4905C105.09 4.73425 113.321 3.11203 119.689 7.14142C126.004 11.1708 128.023 19.3866 124.451 25.0905C120.879 30.8468 112.855 32.2074 106.539 28.178C100.172 24.1486 97.9457 16.2468 101.518 10.4905Z" fill="#F5F5F5"/>
<path d="M101.725 10.4903C105.245 4.89105 113.373 3.26883 119.585 7.24589C125.849 11.2229 127.816 19.3341 124.348 24.9333C120.827 30.5326 112.959 31.8409 106.695 27.8638C100.431 23.8868 98.2044 16.0896 101.725 10.4903Z" fill="#F4F4F4"/>
<path d="M101.88 10.5429C105.297 5.1006 113.321 3.53071 119.482 7.45544C125.642 11.3802 127.661 19.3343 124.244 24.8289C120.828 30.2712 113.062 31.5271 106.902 27.6024C100.741 23.6253 98.4633 15.9852 101.88 10.5429Z" fill="#F3F3F3"/>
<path d="M102.087 10.5426C105.4 5.20495 113.321 3.68739 119.43 7.55979C125.539 11.4322 127.506 19.2817 124.193 24.6193C120.879 29.9569 113.217 31.1082 107.109 27.2358C101 23.311 98.774 15.8279 102.087 10.5426Z" fill="#F2F2F2"/>
<path d="M102.294 10.5428C105.556 5.36217 113.321 3.89693 119.378 7.717C125.383 11.5371 127.35 19.2819 124.089 24.4625C120.828 29.6432 113.321 30.7421 107.316 26.922C101.311 23.0496 99.0328 15.7235 102.294 10.5428Z" fill="#F1F1F1"/>
<path d="M102.45 10.5429C105.607 5.46694 113.321 4.05403 119.223 7.87411C125.176 11.6418 127.092 19.282 123.934 24.3057C120.776 29.3816 113.425 30.3759 107.471 26.6082C101.569 22.7358 99.2916 15.5666 102.45 10.5429Z" fill="#F0F0F0"/>
<path d="M102.657 10.5428C105.711 5.62384 113.321 4.21094 119.171 7.97868C125.021 11.7464 126.988 19.1772 123.882 24.0962C120.828 29.0152 113.58 29.9572 107.678 26.1894C101.88 22.474 99.6022 15.4618 102.657 10.5428Z" fill="#EFEFEF"/>
<path d="M102.864 10.5428C105.866 5.78075 113.321 4.42017 119.119 8.13558C124.917 11.851 126.833 19.1772 123.83 23.9392C120.828 28.7012 113.735 29.5908 107.937 25.8754C102.139 22.2123 99.8611 15.3048 102.864 10.5428Z" fill="#EEEEEE"/>
<path d="M103.071 10.5428C105.97 5.88543 113.321 4.57718 119.067 8.24026C124.762 11.9033 126.677 19.1249 123.778 23.7299C120.879 28.3872 113.89 29.1722 108.196 25.5091C102.45 21.8983 100.172 15.2001 103.071 10.5428Z" fill="#EDEDED"/>
<path d="M103.226 10.5427C106.022 6.04237 113.321 4.78645 118.964 8.39721C124.607 12.008 126.47 19.0725 123.675 23.6252C120.879 28.1255 113.994 28.8581 108.351 25.2474C102.708 21.6366 100.431 15.0431 103.226 10.5427Z" fill="#ECECEC"/>
<path d="M103.433 10.5428C106.177 6.19942 113.321 4.9435 118.86 8.50193C124.4 12.0603 126.315 19.0202 123.571 23.4159C120.828 27.8116 114.098 28.4396 108.558 24.8811C103.019 21.3227 100.689 14.9385 103.433 10.5428Z" fill="#EBEBEB"/>
<path d="M103.64 10.5427C106.28 6.30403 113.321 5.15277 118.809 8.65887C124.296 12.165 126.16 19.0202 123.52 23.2589C120.879 27.4976 114.305 28.0732 108.817 24.5671C103.278 21.061 101 14.7814 103.64 10.5427Z" fill="#EAEAEA"/>
<path d="M103.847 10.5429C106.384 6.46121 113.321 5.30995 118.757 8.76372C124.192 12.2175 126.004 18.968 123.468 23.0497C120.931 27.1315 114.46 27.6548 109.024 24.201C103.588 20.7996 101.259 14.677 103.847 10.5429Z" fill="#E9E9E9"/>
<path d="M104.003 10.5952C106.488 6.61813 113.321 5.57153 118.653 8.97297C123.985 12.3744 125.797 18.9679 123.364 22.945C120.879 26.9221 114.563 27.3407 109.231 23.9393C103.847 20.4855 101.518 14.5199 104.003 10.5952Z" fill="#E8E8E8"/>
<path d="M104.21 10.5951C106.591 6.77499 113.321 5.7284 118.55 9.0775C123.83 12.4266 125.642 18.9155 123.261 22.7356C120.879 26.5556 114.667 26.9219 109.387 23.5728C104.158 20.2237 101.828 14.4151 104.21 10.5951Z" fill="#E7E7E7"/>
<path d="M104.417 10.5952C106.695 6.93214 113.321 5.88554 118.498 9.23465C123.675 12.5314 125.487 18.9156 123.157 22.5787C120.879 26.2418 114.771 26.5558 109.594 23.259C104.417 19.9622 102.087 14.2583 104.417 10.5952Z" fill="#E6E6E6"/>
<path d="M104.572 10.5949C106.798 7.03647 113.269 6.09454 118.394 9.33898C123.52 12.5834 125.28 18.863 123.054 22.3691C120.828 25.9275 114.874 26.1368 109.801 22.8924C104.727 19.6479 102.398 14.1533 104.572 10.5949Z" fill="#E6E6E6"/>
<path d="M104.779 10.5953C106.902 7.19383 113.321 6.2519 118.343 9.49634C123.364 12.6885 125.176 18.811 123.002 22.2648C120.879 25.6662 115.081 25.8232 110.008 22.6311C104.986 19.3867 102.657 13.9967 104.779 10.5953Z" fill="#E5E5E5"/>
<path d="M104.986 10.5949C107.057 7.29814 113.321 6.46086 118.291 9.60065C123.261 12.7404 125.021 18.7584 122.95 22.0551C120.879 25.3519 115.236 25.4042 110.267 22.2644C105.297 19.0723 102.915 13.8917 104.986 10.5949Z" fill="#E4E4E4"/>
<path d="M105.193 10.5951C107.161 7.45535 113.321 6.61807 118.187 9.75786C123.054 12.8976 124.814 18.7586 122.847 21.8984C120.879 25.0381 115.34 25.0381 110.474 21.9507C105.556 18.8109 103.226 13.7349 105.193 10.5951Z" fill="#E3E3E3"/>
<path d="M105.349 10.595C107.212 7.61224 113.269 6.82729 118.084 9.86242C122.898 12.9499 124.607 18.7061 122.743 21.6889C120.879 24.6717 115.444 24.6194 110.629 21.5843C105.866 18.5492 103.485 13.6302 105.349 10.595Z" fill="#E2E2E2"/>
<path d="M105.556 10.5951C107.368 7.717 113.269 6.98439 118.032 10.0195C122.743 13.0546 124.503 18.6539 122.691 21.5321C120.879 24.4102 115.599 24.2532 110.888 21.2704C106.125 18.2353 103.744 13.4733 105.556 10.5951Z" fill="#E1E1E1"/>
<path d="M105.763 10.5954C107.471 7.87422 113.321 7.19394 117.98 10.1244C122.639 13.1072 124.348 18.6018 122.639 21.323C120.931 24.0441 115.806 23.8348 111.147 20.9043C106.436 17.9739 104.054 13.3688 105.763 10.5954Z" fill="#E0E0E0"/>
<path d="M105.97 10.6475C107.575 8.031 113.321 7.40304 117.877 10.3335C122.432 13.264 124.141 18.6539 122.536 21.2181C120.931 23.8346 115.909 23.5729 111.302 20.6425C106.746 17.712 104.313 13.2116 105.97 10.6475Z" fill="#DFDFDF"/>
<path d="M106.125 10.6473C107.678 8.1878 113.269 7.55984 117.773 10.438C122.277 13.3161 123.934 18.6014 122.432 21.0086C120.879 23.4681 116.013 23.1541 111.509 20.276C107.005 17.3978 104.624 13.1068 106.125 10.6473Z" fill="#DEDEDE"/>
<path d="M106.332 10.6474C107.782 8.34485 113.269 7.76923 117.721 10.595C122.122 13.4208 123.83 18.5492 122.381 20.904C120.931 23.2065 116.168 22.8402 111.768 20.0144C107.316 17.1363 104.883 12.9499 106.332 10.6474Z" fill="#DDDDDD"/>
<path d="M106.539 10.6474C107.885 8.44957 113.321 7.92627 117.67 10.6997C122.018 13.4732 123.675 18.4969 122.329 20.6947C120.983 22.8926 116.324 22.4216 111.975 19.6481C107.575 16.8223 105.142 12.8453 106.539 10.6474Z" fill="#DCDCDC"/>
<path d="M106.695 10.6473C107.989 8.60642 113.269 8.13545 117.514 10.8566C121.811 13.5777 123.416 18.4967 122.122 20.5376C120.827 22.5785 116.324 22.0552 112.079 19.2817C107.885 16.5605 105.452 12.6881 106.695 10.6473Z" fill="#DBDBDB"/>
<path d="M106.902 10.6473C108.092 8.71106 113.269 8.29242 117.463 10.9612C121.656 13.6301 123.261 18.3921 122.07 20.3283C120.879 22.2645 116.479 21.6365 112.286 18.9154C108.144 16.2989 105.711 12.5835 106.902 10.6473Z" fill="#DADADA"/>
<path d="M107.109 10.6475C108.196 8.8683 113.269 8.50199 117.411 11.1185C121.552 13.735 123.157 18.3923 122.018 20.1715C120.931 21.9507 116.686 21.2705 112.545 18.6016C108.455 15.9851 105.97 12.4267 107.109 10.6475Z" fill="#D9D9D9"/>
<path d="M112.389 37.1785C122.539 37.1785 130.767 28.8613 130.767 18.6015C130.767 8.34165 122.539 0.0244141 112.389 0.0244141C102.239 0.0244141 94.0112 8.34165 94.0112 18.6015C94.0112 28.8613 102.239 37.1785 112.389 37.1785Z" fill="black"/>
<path d="M129.887 18.6538C129.887 8.92043 122.07 0.966309 112.441 0.966309C102.812 0.966309 94.943 8.8681 94.943 18.6014C94.943 28.3348 102.76 36.2889 112.389 36.2889C122.018 36.3412 129.887 28.4394 129.887 18.6538Z" fill="black"/>
<path d="M66.263 17.8687C66.263 23.154 62.5356 27.1311 57.307 27.1311C51.923 27.1311 48.2992 23.3634 48.2992 17.9211C48.2992 12.7404 51.8712 8.65869 57.307 8.65869C62.5356 8.65869 66.263 12.5834 66.263 17.8687ZM61.6038 17.8687C61.6038 14.7813 60.4131 12.0078 57.2552 12.0078C54.0973 12.0078 52.9066 14.7813 52.9066 17.8687C52.9066 20.9562 54.0973 23.7297 57.2552 23.7297C60.4131 23.7297 61.6038 21.0085 61.6038 17.8687Z" fill="black"/>
<path d="M34.6322 16.2465C34.4251 13.8393 33.545 11.9031 32.0955 10.5949C30.6977 9.33898 28.7823 8.65869 26.4527 8.65869C24.7443 8.65869 22.57 9.23432 20.9651 10.5949C19.0497 12.1648 17.6002 14.6766 17.6002 18.0257C17.6002 20.9039 18.532 23.2064 20.1886 24.7763C21.7934 26.2938 24.123 27.1311 26.9703 27.1311C29.2482 27.1311 32.0437 26.2415 33.2344 25.5089C33.6485 25.2472 33.8038 25.1426 33.6485 24.7239L32.9238 22.5784C32.8202 22.2121 32.4579 22.1598 32.1472 22.3168C31.6295 22.5784 31.2154 22.7877 30.6977 22.997C29.6623 23.3634 28.5752 23.625 27.5916 23.625C25.469 23.625 24.2266 23.0494 23.2947 21.9504C22.7253 21.2702 22.3629 20.3806 22.2594 19.3863H34.0627C34.4768 19.3863 34.6839 19.0723 34.6839 18.6013V17.7641C34.6839 17.2931 34.6839 16.6128 34.6322 16.2465ZM30.4389 16.1942C30.4389 16.1942 25.3137 16.1942 22.3111 16.1942C22.4147 15.6185 22.57 15.0429 22.8288 14.4673C23.5536 13.0021 24.9514 12.0601 26.6597 12.0601C29.0411 12.0601 30.4389 13.6824 30.4389 16.0895V16.1942Z" fill="black"/>
<path d="M38.8772 11.2228C40.2232 9.49588 42.294 8.71094 45.7107 8.71094C46.4873 8.71094 47.4709 8.8156 48.0921 8.97259C48.5063 9.07725 48.558 9.39122 48.5063 9.80986L48.0921 11.7984C47.9886 12.1647 47.885 12.2694 47.6262 12.2694C47.5744 12.2694 47.4709 12.2694 47.3674 12.2694C47.1085 12.217 46.2802 12.1647 45.9696 12.1647C44.2612 12.1647 43.4847 12.5833 42.8635 13.2636C42.1387 14.0486 42.1387 15.1475 42.1387 17.136C42.1387 17.607 42.1387 26.0844 42.1387 26.0844C42.1387 26.66 41.8798 27.0263 41.2586 27.0263H38.5666C37.9972 27.0263 37.7383 26.7124 37.6866 26.0844C37.6866 26.0844 37.6866 18.3396 37.6866 17.3453C37.6866 14.0486 37.8419 12.531 38.8772 11.2228Z" fill="black"/>
<path d="M8.69594 14.8861C9.31717 14.2581 10.7149 12.4789 12.268 9.49612C12.5268 8.97282 12.7857 8.86816 13.0963 8.86816H15.9954C16.2542 8.86816 16.5648 8.97282 16.4095 9.49612C15.2706 12.9499 12.6304 15.985 11.1808 17.5549C12.7857 19.0725 15.5812 22.6832 16.8754 26.1893C16.979 26.5033 16.9272 26.8696 16.2542 26.8696H12.7857C12.4233 26.8696 12.1645 26.8173 11.9056 26.2416C11.0255 24.0961 9.67955 21.7936 8.17825 20.3284C6.52164 22.1076 5.22742 24.3578 4.39911 26.2416C4.19204 26.7126 3.98496 26.8696 3.51904 26.8696H0.361133C0.154057 26.8696 -0.0530185 26.6079 0.0505195 26.2416C0.982361 23.6252 2.89781 20.3807 5.5898 17.9212C3.46727 15.3571 1.44828 12.1649 0.619977 9.54845C0.516439 9.12981 0.723516 8.92049 0.982361 8.92049H4.70973C5.12388 8.92049 5.33095 9.07748 5.53803 9.54845C6.46987 11.694 7.71233 13.7872 8.69594 14.8861Z" fill="black"/>
<path d="M75.4261 14.8861C76.0474 14.2581 77.4451 12.4789 78.9982 9.49612C79.257 8.97282 79.5159 8.86816 79.8265 8.86816H82.7256C82.9844 8.86816 83.295 8.97282 83.1397 9.49612C82.0008 12.9499 79.3606 15.985 77.911 17.5549C79.5159 19.0725 82.3114 22.6832 83.6056 26.1893C83.7092 26.5033 83.6574 26.8696 82.9844 26.8696H79.5159C79.1535 26.8696 78.8947 26.8173 78.6358 26.2416C77.7557 24.0961 76.4615 21.7936 74.9084 20.3284C73.2518 22.1076 71.9576 24.3578 71.1293 26.2416C70.9222 26.7126 70.7152 26.8696 70.2492 26.8696H67.0913C66.8843 26.8696 66.6772 26.6079 66.7807 26.2416C67.7126 23.6252 69.628 20.3807 72.32 17.9212C70.1975 15.3571 68.1785 12.1649 67.3502 9.54845C67.2466 9.12981 67.4537 8.92049 67.7126 8.92049H71.4399C71.8541 8.92049 72.0612 9.07748 72.2682 9.54845C73.2001 11.694 74.4943 13.7872 75.4261 14.8861Z" fill="black"/>
<path d="M121.966 24.6715C118.55 31.736 113.114 36.3934 108.817 36.8644C106.487 36.4457 104.054 35.3468 102.242 34.0909C102.294 34.0909 102.398 34.0909 102.501 34.0909C106.28 34.0909 112.286 27.288 115.909 18.8629C111.147 15.2522 105.09 12.2694 99.3951 12.2694C96.4961 12.2694 95.0983 13.3683 94.7359 13.7346C95.1501 12.1647 95.7195 10.7518 96.4961 9.39124C97.2208 8.083 98.0491 6.98408 98.7739 6.25146C99.4469 5.72816 101.259 4.99554 103.951 4.99554C109.594 4.99554 114.615 6.98408 118.601 9.75755C118.86 8.23999 118.964 6.77476 118.964 5.30952C118.964 1.7511 117.928 0.966155 117.618 0.756836C118.912 1.12314 120.051 1.59411 121.138 2.16974C122.07 2.69304 122.898 3.21633 123.882 3.94895C124.244 4.41992 125.28 5.78049 125.28 10.4902C125.28 12.2694 125.124 13.9963 124.865 15.6185C127.557 19.1246 129.111 22.84 129.111 25.5611C129.111 26.1368 129.007 26.7647 128.955 27.0264C128.023 28.9102 126.729 30.5848 125.228 32.05C125.28 31.893 125.383 31.6314 125.383 31.2127C125.228 29.5905 123.985 27.1834 121.966 24.6715Z" fill="url(#paint0_radial_178_123)"/>
<g opacity="0.8">
<path opacity="0.8" d="M126.108 31.0559C126.211 30.8989 126.263 30.2187 126.263 30.114C126.263 23.9391 114.563 10.2287 100.327 10.2287C97.1173 10.2287 95.6678 11.3799 95.3054 11.6416C95.2019 11.9032 95.1501 12.1126 95.0466 12.3742C95.409 12.1126 96.9103 10.9613 99.9646 10.9613C113.735 10.9613 125.849 24.567 125.849 30.6896C125.849 30.8989 125.797 31.2653 125.694 31.5269C125.849 31.3176 126.004 31.1606 126.108 31.0559ZM97.1691 8.18783C97.635 7.71687 99.3952 6.87959 102.501 6.87959C116.841 6.87959 128.127 20.1713 128.127 27.6545C128.127 27.8638 128.075 28.3348 127.92 28.7011C128.075 28.4918 128.23 28.2301 128.282 28.0731C128.489 27.7068 128.489 27.1835 128.489 26.8696C128.489 19.2294 117.307 6.14697 102.967 6.14697C99.654 6.14697 98.308 6.93192 97.7386 7.35056C97.5832 7.55988 97.3244 7.92618 97.1691 8.18783ZM96.3926 9.44375C96.3926 9.44375 96.0302 10.0717 95.9784 10.281C96.3926 9.96705 97.8421 8.92045 100.948 8.92045C116.324 8.92045 127.04 23.1018 127.04 29.1721C127.04 29.486 126.988 29.9047 126.833 30.1663C127.04 29.9047 127.195 29.6954 127.299 29.5907C127.506 29.2767 127.454 28.6488 127.454 28.4394C127.454 22.5262 116.997 8.18783 101.569 8.18783C98.3598 8.18783 96.962 8.97278 96.3926 9.44375Z" fill="url(#paint1_linear_178_123)"/>
<path opacity="0.8" d="M119.585 1.48968C119.947 1.85598 120.672 3.58287 120.672 6.09469C120.672 19.8574 111.25 33.6201 104.003 35.19C103.796 35.0854 103.64 34.9807 103.381 34.8761C108.869 34.2481 119.999 20.904 119.999 5.83305C119.999 3.47821 119.378 1.75132 118.809 1.22803C119.119 1.28036 119.378 1.38502 119.585 1.48968ZM122.07 2.79792C122.329 3.00724 123.364 4.94344 123.364 7.92623C123.364 22.8925 114.822 34.7714 106.539 36.289C106.85 36.3936 107.005 36.4459 107.316 36.5506C116.168 35.2947 124.037 22.1599 124.037 8.60652C124.037 5.46674 123.054 3.58287 122.691 3.21656C122.536 3.05957 122.329 2.95491 122.07 2.79792ZM120.465 1.90831C120.724 2.16996 121.759 4.05383 121.759 7.19362C121.759 21.3226 112.337 34.1958 104.934 35.6087C105.193 35.7133 105.349 35.818 105.556 35.8703C113.994 34.1958 122.381 20.7994 122.381 7.45527C122.381 4.83878 121.501 2.5886 121.138 2.22229C120.879 2.11763 120.62 1.96064 120.465 1.90831Z" fill="url(#paint2_linear_178_123)"/>
</g>
<defs>
<radialGradient id="paint0_radial_178_123" cx="0" cy="0" r="1" gradientUnits="userSpaceOnUse" gradientTransform="translate(120.685 17.2751) scale(26.2826 26.5673)">
<stop stop-color="white"/>
<stop offset="0.178" stop-color="#FCFCFC"/>
<stop offset="0.3187" stop-color="#F2F2F2"/>
<stop offset="0.5651" stop-color="#E3E3E3"/>
<stop offset="0.7967" stop-color="#D1D1D1"/>
<stop offset="1" stop-color="#BFBFBF"/>
</radialGradient>
<linearGradient id="paint1_linear_178_123" x1="96.5028" y1="9.13045" x2="129.903" y2="24.5383" gradientUnits="userSpaceOnUse">
<stop stop-color="#595959"/>
<stop offset="0.0510519" stop-color="#727272"/>
<stop offset="0.1402" stop-color="#989898"/>
<stop offset="0.2335" stop-color="#B7B7B7"/>
<stop offset="0.3305" stop-color="#CFCFCF"/>
<stop offset="0.4329" stop-color="#E0E0E0"/>
<stop offset="0.5443" stop-color="#EAEAEA"/>
<stop offset="0.6813" stop-color="#EDEDED"/>
<stop offset="0.7624" stop-color="#EAEAEA"/>
<stop offset="0.8206" stop-color="#E1E1E1"/>
<stop offset="0.8717" stop-color="#D1D1D1"/>
<stop offset="0.9187" stop-color="#BBBBBB"/>
<stop offset="0.9624" stop-color="#9F9F9F"/>
<stop offset="1" stop-color="#808080"/>
</linearGradient>
<linearGradient id="paint2_linear_178_123" x1="108.415" y1="37.2731" x2="124.249" y2="3.68168" gradientUnits="userSpaceOnUse">
<stop stop-color="#595959"/>
<stop offset="0.0452964" stop-color="#6C6C6C"/>
<stop offset="0.1571" stop-color="#939393"/>
<stop offset="0.2727" stop-color="#B4B4B4"/>
<stop offset="0.3913" stop-color="#CDCDCD"/>
<stop offset="0.514" stop-color="#DFDFDF"/>
<stop offset="0.6436" stop-color="#EAEAEA"/>
<stop offset="0.7912" stop-color="#EDEDED"/>
<stop offset="0.8279" stop-color="#E9E9E9"/>
<stop offset="0.869" stop-color="#DBDBDB"/>
<stop offset="0.9121" stop-color="#C5C5C5"/>
<stop offset="0.9563" stop-color="#A6A6A6"/>
<stop offset="1" stop-color="#808080"/>
</linearGradient>
</defs>
</svg>
